<svg width="20" height="20" viewBox="0 0 20 20" fill="none" xmlns="http://www.w3.org/2000/svg">
<path d="M17.9636 15.2432C17.9153 15.0975 17.6077 14.8829 17.0411 14.5999C16.8876 14.5107 16.6689 14.3895 16.3859 14.2357C16.1026 14.0819 15.8455 13.9402 15.615 13.8107C15.3841 13.6812 15.1677 13.5558 14.9655 13.4346C14.9332 13.4103 14.8321 13.3396 14.6621 13.222C14.492 13.1047 14.3485 13.0177 14.231 12.961C14.1137 12.9045 13.9983 12.8761 13.8849 12.8761C13.7231 12.8761 13.521 12.9915 13.2783 13.222C13.0356 13.4528 12.813 13.7035 12.6107 13.9748C12.4085 14.246 12.194 14.4967 11.9676 14.7274C11.7409 14.9581 11.5546 15.0734 11.4091 15.0734C10.1247 15.0734 8.32706 13.3023 7.51224 12.4878C6.63334 11.6085 4.92663 9.95131 4.92663 8.59104C4.92663 8.44546 5.04198 8.25923 5.27265 8.03261C5.50327 7.80612 5.75421 7.59157 6.02523 7.3894C6.29646 7.18723 6.54715 6.96461 6.77785 6.72192C7.00847 6.4791 7.12379 6.27689 7.12379 6.11507C7.12379 6.00184 7.09547 5.88641 7.03888 5.7691C6.98224 5.65154 6.89525 5.50808 6.77785 5.33806C6.66042 5.16811 6.58962 5.06705 6.5653 5.03452C6.44404 4.83235 6.31874 4.6159 6.1891 4.38524C6.05946 4.15462 5.91795 3.89756 5.76412 3.61435C5.61042 3.33127 5.48911 3.11269 5.39999 2.95894C5.1169 2.39256 4.90248 2.08491 4.75677 2.03652C4.70009 2.01225 4.61505 2 4.50187 2C4.28324 2 3.99802 2.04039 3.64601 2.12143C3.29387 2.20234 3.01677 2.28721 2.81442 2.37637C2.40977 2.54622 1.98089 3.03985 1.52764 3.85708C0.28566 6.14573 1.45872 9.34206 2.75354 11.4195C4.17093 13.7169 6.28302 15.8288 8.58022 17.2464C10.6572 18.5409 13.855 19.7141 16.1429 18.4729C17.0377 17.9768 17.5756 17.4577 17.8345 16.5282C17.8502 16.4719 17.8649 16.414 17.8785 16.3545C17.9597 16.0025 18 15.7174 18 15.4988C18.0003 15.3851 17.988 15.3003 17.9636 15.2432Z" fill="url(#paint0_linear)"/>
<defs>
<linearGradient id="paint0_linear" x1="1" y1="2.10505" x2="18.3397" y2="2.45892" gradientUnits="userSpaceOnUse">
<stop stop-color="#EB5D56"/>
<stop offset="1" stop-color="#390A40"/>
</linearGradient>
</defs>
</svg>
