<svg width="52" height="52" viewBox="0 0 52 52" fill="none" xmlns="http://www.w3.org/2000/svg">
<path d="M26.6528 28.2878C26.5603 28.2678 26.4654 28.2642 26.3717 28.2782C25.4326 28.1689 24.7242 27.3744 24.7226 26.4293C24.7226 25.9764 24.3554 25.6091 23.9025 25.6091C23.4495 25.6091 23.0823 25.9764 23.0823 26.4293C23.0847 28.0075 24.1403 29.3899 25.6621 29.8076V30.6277C25.6621 31.0806 26.0293 31.4479 26.4822 31.4479C26.9351 31.4479 27.3024 31.0806 27.3024 30.6277V29.8572C29.0588 29.4896 30.2526 27.8537 30.068 26.0689C29.8829 24.284 28.3792 22.9276 26.5847 22.9272C25.5564 22.9272 24.7226 22.0935 24.7226 21.0651C24.7226 20.0367 25.5564 19.203 26.5847 19.203C27.6131 19.203 28.4469 20.0367 28.4469 21.0651C28.4469 21.518 28.8141 21.8852 29.267 21.8852C29.72 21.8852 30.0872 21.518 30.0872 21.0651C30.0848 19.408 28.9238 17.9787 27.3024 17.6367V16.8903C27.3024 16.4374 26.9351 16.0701 26.4822 16.0701C26.0293 16.0701 25.6621 16.4374 25.6621 16.8903V17.6868C23.9697 18.1489 22.8805 19.792 23.1135 21.5308C23.3466 23.2696 24.8303 24.5675 26.5847 24.5671C27.5995 24.5671 28.4273 25.3797 28.4457 26.394C28.4645 27.4084 27.6668 28.251 26.6528 28.2878Z" fill="url(#paint0_linear)"/>
<path d="M14.6918 23.8103C14.6918 30.3786 20.0163 35.7032 26.5847 35.7032C33.153 35.7032 38.4776 30.3786 38.4776 23.8103C38.4776 17.2419 33.153 11.9174 26.5847 11.9174C20.0195 11.9246 14.6994 17.2451 14.6918 23.8103ZM26.5847 13.5577C32.2472 13.5577 36.8373 18.1477 36.8373 23.8103C36.8373 29.4728 32.2472 34.0629 26.5847 34.0629C20.9222 34.0629 16.3321 29.4728 16.3321 23.8103C16.3385 18.1505 20.925 13.5641 26.5847 13.5577Z" fill="url(#paint1_linear)"/>
<path d="M42.5205 37.7251L36.096 40.7606C35.2089 39.1107 33.5074 38.0607 31.6348 38.0078L25.704 37.8448C24.7649 37.818 23.8435 37.5801 23.0085 37.1488L22.405 36.8361C19.315 35.2254 15.632 35.2294 12.5452 36.8465L12.5829 35.4793C12.5953 35.0264 12.2385 34.6491 11.7856 34.6367L5.28208 34.4577C4.82916 34.4453 4.45233 34.8021 4.43991 35.255L4.04706 49.5267C4.03465 49.9796 4.39146 50.3568 4.84438 50.3692L11.3479 50.5482H11.3703C11.8148 50.5482 12.1784 50.1946 12.1904 49.7505L12.2093 49.0677L13.8988 48.1631C14.562 47.8063 15.3373 47.7214 16.0617 47.9264L26.1509 50.7581C26.1685 50.7633 26.1861 50.7673 26.2042 50.7713C26.9334 50.9239 27.6767 51.0004 28.4215 51C29.9993 51.0008 31.5587 50.6608 32.9928 50.0024C33.028 49.9864 33.0621 49.9676 33.0945 49.9464L47.7229 40.4843C48.0874 40.2484 48.2051 39.7698 47.9916 39.3918C46.9056 37.4648 44.4968 36.7307 42.5205 37.7251ZM5.70937 48.7522L6.05697 36.12L10.9206 36.2538L10.573 48.8863L5.70937 48.7522ZM32.2539 48.5375C30.4723 49.3417 28.4824 49.5635 26.5674 49.1723L16.5054 46.3478C15.3729 46.0278 14.1607 46.1604 13.1247 46.7174L12.2613 47.18L12.4924 38.7811C15.2283 36.9614 18.7372 36.7744 21.6509 38.2925L22.2544 38.6053C23.3092 39.1499 24.4726 39.4503 25.6591 39.4847L31.5904 39.6477C33.2563 39.6957 34.6711 40.8819 35.0091 42.5142L26.1745 42.2703C25.7216 42.2579 25.3448 42.6151 25.332 43.0676C25.3195 43.5206 25.6768 43.8978 26.1293 43.9102L35.8789 44.1785H35.9017C36.3458 44.1781 36.7091 43.8245 36.7211 43.3808C36.7311 43.0244 36.7047 42.6676 36.6418 42.3168L43.2314 39.2032C43.2378 39.2004 43.2442 39.1972 43.2506 39.194C44.1853 38.721 45.3154 38.8792 46.0843 39.5908L32.2539 48.5375Z" fill="url(#paint2_linear)"/>
<path d="M27.4048 9.61152V1.82014C27.4048 1.36722 27.0376 1 26.5847 1C26.1317 1 25.7645 1.36722 25.7645 1.82014V9.61152C25.7645 10.0644 26.1317 10.4317 26.5847 10.4317C27.0376 10.4317 27.4048 10.0644 27.4048 9.61152Z" fill="url(#paint3_linear)"/>
<path d="M33.5558 9.6115V5.92085C33.5558 5.46793 33.1886 5.10071 32.7357 5.10071C32.2828 5.10071 31.9155 5.46793 31.9155 5.92085V9.6115C31.9155 10.0644 32.2828 10.4316 32.7357 10.4316C33.1886 10.4316 33.5558 10.0644 33.5558 9.6115Z" fill="url(#paint4_linear)"/>
<path d="M21.2538 9.6115V5.92085C21.2538 5.46793 20.8865 5.10071 20.4336 5.10071C19.9807 5.10071 19.6135 5.46793 19.6135 5.92085V9.6115C19.6135 10.0644 19.9807 10.4316 20.4336 10.4316C20.8865 10.4316 21.2538 10.0644 21.2538 9.6115Z" fill="url(#paint5_linear)"/>
<defs>
<linearGradient id="paint0_linear" x1="23.0822" y1="16.1652" x2="30.2295" y2="16.2316" gradientUnits="userSpaceOnUse">
<stop stop-color="#EB5D56"/>
<stop offset="1" stop-color="#390A40"/>
</linearGradient>
<linearGradient id="paint1_linear" x1="14.6918" y1="12.0644" x2="38.9529" y2="12.5595" gradientUnits="userSpaceOnUse">
<stop stop-color="#EB5D56"/>
<stop offset="1" stop-color="#390A40"/>
</linearGradient>
<linearGradient id="paint2_linear" x1="4.04675" y1="34.5596" x2="48.8645" y2="36.9952" gradientUnits="userSpaceOnUse">
<stop stop-color="#EB5D56"/>
<stop offset="1" stop-color="#390A40"/>
</linearGradient>
<linearGradient id="paint3_linear" x1="25.7645" y1="1.05828" x2="27.4383" y2="1.06422" gradientUnits="userSpaceOnUse">
<stop stop-color="#EB5D56"/>
<stop offset="1" stop-color="#390A40"/>
</linearGradient>
<linearGradient id="paint4_linear" x1="31.9155" y1="5.13365" x2="33.5892" y2="5.14416" gradientUnits="userSpaceOnUse">
<stop stop-color="#EB5D56"/>
<stop offset="1" stop-color="#390A40"/>
</linearGradient>
<linearGradient id="paint5_linear" x1="19.6135" y1="5.13365" x2="21.2872" y2="5.14416" gradientUnits="userSpaceOnUse">
<stop stop-color="#EB5D56"/>
<stop offset="1" stop-color="#390A40"/>
</linearGradient>
</defs>
</svg>
